<svg width="283" height="594" viewBox="0 0 283 594" xmlns="http://www.w3.org/2000/svg" xmlns:xlink="http://www.w3.org/1999/xlink">
    <defs>
        <filter x="-3.4%" y="-3.6%" width="106.8%" height="107.2%" filterUnits="objectBoundingBox" id="uum0yf28mc">
            <feOffset in="SourceAlpha" result="shadowOffsetOuter1"/>
            <feGaussianBlur stdDeviation="2.5" in="shadowOffsetOuter1" result="shadowBlurOuter1"/>
            <feColorMatrix values="0 0 0 0 0.367833648 0 0 0 0 0.355968046 0 0 0 0 0.593280077 0 0 0 0.2 0" in="shadowBlurOuter1" result="shadowMatrixOuter1"/>
            <feMorphology radius="1" in="SourceAlpha" result="shadowSpreadOuter2"/>
            <feOffset dy="2" in="shadowSpreadOuter2" result="shadowOffsetOuter2"/>
            <feGaussianBlur stdDeviation=".5" in="shadowOffsetOuter2" result="shadowBlurOuter2"/>
            <feColorMatrix values="0 0 0 0 0.367833648 0 0 0 0 0.355968046 0 0 0 0 0.593280077 0 0 0 0.12 0" in="shadowBlurOuter2" result="shadowMatrixOuter2"/>
            <feOffset dy="2" in="SourceAlpha" result="shadowOffsetOuter3"/>
            <feGaussianBlur stdDeviation=".5" in="shadowOffsetOuter3" result="shadowBlurOuter3"/>
            <feColorMatrix values="0 0 0 0 0.367833648 0 0 0 0 0.355968046 0 0 0 0 0.593280077 0 0 0 0.14 0" in="shadowBlurOuter3" result="shadowMatrixOuter3"/>
            <feMerge>
                <feMergeNode in="shadowMatrixOuter1"/>
                <feMergeNode in="shadowMatrixOuter2"/>
                <feMergeNode in="shadowMatrixOuter3"/>
            </feMerge>
        </filter>
        <rect id="cuqidx9cxa" x="0" y="0" width="243.441" height="432" rx="6.085"/>
        <path d="M21.299 121.69h200.843a9.127 9.127 0 0 1 9.127 9.127v190.901a9.127 9.127 0 0 1-9.127 9.127H21.3a9.127 9.127 0 0 1-9.127-9.127V130.817a9.127 9.127 0 0 1 9.127-9.127z" id="nobb19bc3d"/>
    </defs>
    <g fill="none" fill-rule="evenodd">
        <path d="M236.9 2.56h5.134C264.657 2.56 283 20.905 283 43.534v509.493C283 575.651 264.659 594 242.034 594H44.807c-22.622 0-40.965-18.344-40.965-40.973V209.948A3.842 3.842 0 0 1 0 206.107v-14.08a3.842 3.842 0 0 1 3.842-3.842v-26.883A3.842 3.842 0 0 1 0 157.46v-14.08a3.842 3.842 0 0 1 3.842-3.841v-28.164A3.842 3.842 0 0 1 0 107.533v-19.2a3.842 3.842 0 0 1 3.842-3.842V43.534c0-22.624 18.34-40.974 40.965-40.974h145.994A2.56 2.56 0 0 1 193.36 0h40.979a2.56 2.56 0 0 1 2.56 2.56z" fill="#D6D2E1"/>
        <path d="M143.42 527.431c-13.437 0-24.33 10.89-24.33 24.323 0 13.434 10.893 24.324 24.33 24.324 13.438 0 24.331-10.89 24.331-24.324 0-13.433-10.893-24.323-24.33-24.323zM103.724 49.927a3.841 3.841 0 1 0-.001 7.682 3.841 3.841 0 0 0 .001-7.682z" fill="#C1B8D0"/>
        <path d="M165.179 51.207h-44.797c-.713 0-1.292.567-1.292 1.292v2.536c0 .714.578 1.293 1.28 1.293h44.81c.713 0 1.29-.568 1.29-1.293V52.5c0-.714-.565-1.292-1.291-1.292z" fill="#A99FBC"/>
        <path d="M142.78 25.604a5.762 5.762 0 1 0 5.763 5.76c0-3.181-2.58-5.76-5.762-5.76z" fill="#C1B8D0"/>
        <g transform="translate(22.062 85.183)">
            <mask id="llr2c474tb" fill="#fff">
                <use xlink:href="#cuqidx9cxa"/>
            </mask>
            <use fill="#D8D8D8" xlink:href="#cuqidx9cxa"/>
            <g mask="url(#llr2c474tb)">
                <path fill="#F9F8FC" d="M0 60.845h243.441V432H0z"/>
                <path fill="#FFF" d="M0 60.845h243.441v161.24H0z"/>
                <path fill="#742384" d="M0 222.085h243.441V60.845H0zM0 18.254v42.591h243.44V18.254z"/>
                <g fill="#FFF">
                    <path d="M107.698 44.113V41.26l-.148-3.81 2.55 6.662h1.075l2.556-6.667-.149 3.815v2.852h1.498V35.46h-1.944l-2.49 6.631-2.496-6.63h-1.95v8.65h1.498zm9.837-7.339c.261 0 .463-.072.606-.216a.743.743 0 0 0 .214-.544.76.76 0 0 0-.214-.553c-.143-.146-.345-.22-.606-.22-.262 0-.463.074-.604.22a.766.766 0 0 0-.21.553c0 .218.07.399.21.544.141.144.342.216.604.216zm.719 7.339v-6.43h-1.444v6.43h1.444zm10.65 1.497.975-.88-1.486-1.158c.468-.353.831-.829 1.091-1.43.26-.6.39-1.31.39-2.13v-.48c-.005-.844-.155-1.584-.452-2.22-.298-.636-.719-1.123-1.263-1.462-.545-.338-1.174-.508-1.887-.508-.702 0-1.325.172-1.87.514-.545.343-.966.837-1.266 1.483-.299.646-.448 1.39-.448 2.234v.487c.004.828.155 1.56.454 2.193.3.634.723 1.122 1.272 1.465.549.342 1.172.514 1.87.514.277 0 .536-.026.778-.078l1.842 1.456zm-2.62-2.614c-.662 0-1.176-.264-1.543-.79-.366-.528-.55-1.258-.55-2.193v-.505c.008-.927.195-1.645.562-2.154.366-.51.873-.764 1.519-.764.665 0 1.18.252 1.545.755.364.503.547 1.242.547 2.216v.452c0 .974-.18 1.715-.538 2.222-.359.507-.873.76-1.543.76zm6.62 1.117v-3.334h1.676l1.736 3.334h1.61v-.078l-1.943-3.606c.5-.21.889-.51 1.168-.9.28-.39.419-.875.419-1.453 0-.848-.271-1.496-.814-1.943-.543-.448-1.314-.672-2.312-.672H131.4v8.652h1.503zm1.546-4.54h-1.546v-2.9h1.587c.523.008.917.14 1.18.393.264.253.395.612.395 1.075 0 .444-.142.793-.428 1.049-.285.255-.681.383-1.188.383z" fill-rule="nonzero"/>
                    <path d="m16.131 34.52.064-.072a.76.76 0 0 1 1.004-.063l.071.063 4.026 4.025 4.025-4.025a.76.76 0 0 1 1.076 1.076l-4.025 4.025 4.025 4.026a.76.76 0 0 1 .063 1.004l-.063.071a.76.76 0 0 1-1.004.064l-.072-.064-4.025-4.025-4.026 4.025a.76.76 0 0 1-1.075-1.075l4.025-4.026-4.025-4.025a.76.76 0 0 1-.064-1.004l.064-.072-.064.072z"/>
                </g>
                <use fill="#000" filter="url(#uum0yf28mc)" xlink:href="#nobb19bc3d"/>
                <use fill="#FFF" xlink:href="#nobb19bc3d"/>
                <path fill="#742384" d="M0 0v18.254h243.44V0z"/>
                <path d="M219.639 4.754h13.378c.848 0 1.155.088 1.465.253.31.166.553.41.719.72.166.31.254.616.254 1.464v4.844c0 .81-.656 1.465-1.465 1.465H219.639c-.848 0-1.155-.088-1.465-.254a1.728 1.728 0 0 1-.719-.719c-.165-.31-.254-.617-.254-1.464V7.19c0-.848.089-1.155.254-1.465.166-.31.41-.553.72-.719.309-.165.616-.253 1.464-.253z" stroke-opacity=".2" stroke="#FFF" stroke-width=".761"/>
                <path d="M236.217 7.654a1.522 1.522 0 0 1 0 2.946z" fill-opacity=".2" fill="#FFF"/>
                <path d="M219.483 6.275h13.69c.42 0 .76.34.76.76v4.183c0 .42-.34.76-.76.76h-13.69a.76.76 0 0 1-.76-.76V7.035c0-.42.34-.76.76-.76zM106.103 10.769c.024.443.194.749.512.918.164.09.348.134.553.134.383 0 .71-.16.98-.48.27-.319.462-.967.575-1.945-.178.283-.399.48-.662.595a2.105 2.105 0 0 1-.848.172c-.615 0-1.102-.192-1.46-.575-.358-.383-.537-.876-.537-1.48 0-.579.177-1.088.53-1.528.354-.44.875-.66 1.565-.66.93 0 1.571.42 1.925 1.257.196.46.294 1.037.294 1.73 0 .78-.117 1.473-.352 2.076-.39 1.004-1.049 1.506-1.979 1.506-.624 0-1.098-.163-1.421-.49-.324-.327-.486-.737-.486-1.23h.81zm1.216-1.31c.318 0 .609-.105.872-.314.263-.21.394-.576.394-1.099 0-.47-.118-.82-.354-1.05-.236-.23-.537-.345-.903-.345-.392 0-.703.132-.933.395-.23.263-.346.614-.346 1.054 0 .415.101.746.303.991.202.245.525.368.967.368zm3.66-1.859h.93v.972h-.93V7.6zm0 3.74h.93v.97h-.93v-.97zm4.54-1.289V7.16l-2.045 2.892h2.045zm.014 2.26v-1.56h-2.799v-.784l2.923-4.056h.678v4.14h.94v.7h-.94v1.56h-.802zm2.919-4.519v-.615c.579-.056.983-.15 1.212-.283.229-.132.4-.445.512-.938h.633v6.355h-.856V7.792h-1.501zm10.793 1.836-.994-2.892-1.056 2.892h2.05zm-1.457-3.864h1.003l2.375 6.547h-.972l-.664-1.961h-2.589l-.708 1.96h-.91l2.465-6.546zm4.162 0h1.27l1.88 5.535 1.868-5.535h1.257v6.547h-.842V8.447c0-.134.003-.355.008-.664.006-.309.01-.64.01-.994l-1.868 5.522h-.878l-1.88-5.522v.2c0 .161.003.406.01.734.008.328.012.57.012.724v3.864h-.847V5.764z" fill="#FFF"/>
                <g fill="#FFF">
                    <path d="M21.804 10.727h.81c.051.335.225.603.522.802.297.199.675.298 1.132.298.434 0 .793-.104 1.076-.314.284-.21.426-.473.426-.79 0-.274-.104-.501-.312-.683-.208-.18-.533-.326-.976-.436l-.824-.214c-.583-.149-1.006-.36-1.27-.635-.265-.275-.397-.641-.397-1.099 0-.547.209-.988.626-1.326.418-.337.966-.505 1.647-.505.62 0 1.14.166 1.56.499.418.332.644.759.677 1.279h-.807a1.155 1.155 0 0 0-.47-.774c-.257-.185-.586-.278-.987-.278-.428 0-.772.098-1.032.294a.933.933 0 0 0-.39.784c0 .253.096.458.288.615.191.158.509.293.951.406l.673.178c.666.167 1.143.39 1.433.669.29.279.434.655.434 1.127 0 .591-.216 1.061-.648 1.41-.432.35-1.017.524-1.754.524-.68 0-1.238-.166-1.673-.499a1.77 1.77 0 0 1-.715-1.332zm6.907-1.025.212-.212c.141-.141.315-.316.521-.526a247.525 247.525 0 0 1 1.141-1.15l.212-.211h.94L29.67 9.662l2.206 2.745H30.9l-1.8-2.25-.459.427v1.823h-.767V5.695h.767v4.007h.071zm5.99-1.507c-.384 0-.698.13-.945.388-.247.259-.385.6-.415 1.025h2.648c-.01-.425-.131-.766-.366-1.025-.235-.258-.542-.388-.922-.388zm1.265 2.968h.767c-.11.41-.343.734-.7.972-.356.238-.798.356-1.323.356-.666 0-1.193-.223-1.582-.67-.39-.447-.584-1.051-.584-1.812 0-.754.196-1.358.588-1.811.392-.453.918-.68 1.578-.68.647 0 1.157.216 1.528.648.372.433.557 1.022.557 1.767v.294h-3.454v.036c.021.476.156.853.404 1.132.248.28.575.419.982.419.31 0 .568-.056.776-.167.208-.112.362-.273.463-.484zM38.32 6.36h.767v1.244h1.07v.641h-1.07v2.719c0 .282.056.487.17.615.112.128.293.191.543.191a2.969 2.969 0 0 0 .356-.017v.646a2.305 2.305 0 0 1-.45.044c-.493 0-.847-.1-1.063-.298-.215-.2-.323-.528-.323-.985V8.244h-.775v-.641h.775V6.359zm6.97 2.714h-.775a1.15 1.15 0 0 0-.408-.61c-.21-.17-.487-.254-.831-.254-.43 0-.773.16-1.027.481-.254.32-.381.753-.381 1.297 0 .555.127.997.383 1.323.255.327.597.49 1.025.49.324 0 .593-.072.809-.218.215-.145.358-.353.43-.624h.775c-.068.44-.276.805-.624 1.097-.347.29-.81.436-1.386.436-.671 0-1.207-.226-1.606-.68-.4-.452-.6-1.06-.6-1.824 0-.749.2-1.347.598-1.796.398-.449.932-.673 1.604-.673.585 0 1.05.152 1.397.457.346.304.552.67.617 1.098zm1.177 3.334V5.695h.766V8.36h.071c.122-.264.307-.47.555-.62.248-.148.557-.222.925-.222.508 0 .911.155 1.21.466.299.31.448.748.448 1.312v3.11h-.767V9.484c0-.425-.094-.743-.283-.956-.188-.212-.464-.318-.826-.318-.431 0-.76.124-.99.372-.228.248-.343.575-.343.982v2.844h-.766zM6.845 9.507h.76c.42 0 .761.34.761.76v1.902c0 .42-.34.76-.76.76h-.76a.76.76 0 0 1-.761-.76v-1.901c0-.42.34-.761.76-.761zm3.423-1.14h.76c.42 0 .76.34.76.76v3.042c0 .42-.34.76-.76.76h-.76a.76.76 0 0 1-.761-.76V9.127c0-.42.34-.76.76-.76zm3.422-1.522h.76c.42 0 .761.34.761.76v4.564c0 .42-.34.76-.76.76h-.76a.76.76 0 0 1-.761-.76V7.606c0-.42.34-.76.76-.76zm3.423-1.521h.76c.42 0 .76.34.76.76v6.085c0 .42-.34.76-.76.76h-.76a.76.76 0 0 1-.76-.76V6.085c0-.42.34-.761.76-.761zM55.772 7.476a7.958 7.958 0 0 1 5.453-2.152c2.109 0 4.027.817 5.454 2.152l-1.076 1.076a6.442 6.442 0 0 0-4.378-1.707 6.442 6.442 0 0 0-4.377 1.707l-1.076-1.076zm1.884 1.884a5.304 5.304 0 0 1 3.57-1.374c1.373 0 2.625.52 3.569 1.374l-1.077 1.077a3.788 3.788 0 0 0-2.493-.93c-.953 0-1.824.35-2.492.93L57.656 9.36zm1.887 1.887a2.651 2.651 0 0 1 1.682-.6c.639 0 1.224.226 1.683.6l-1.683 1.683-1.682-1.683z"/>
                </g>
                <path d="M142.543 257.796v3.838h-3.056v-3.838h3.056zm-33.387-14.66v7.441h7.162v3.729h-3.59v7.328h-7.147v-3.674h3.562v-3.607h-3.614v-11.217h3.627zm-7.523-.002v18.5h-3.838v-18.5h3.838zm58.924-40.121v3.863h7.45v3.907h-7.45v3.03h6.68v5.77l.002 5.765h-3.476v-7.702l-3.435-.001v14.542h3.73v-3.678h3.687v-3.564h3.552v3.559h3.666v7.424h-7.21v3.695h-7.406v7.315h3.67v-3.687l7.284-.001v3.682h3.672v3.69h-3.638v7.343l-3.59-.001.001 3.66h-7.392v-3.626h-7.286v3.636h-7.393v-3.67h3.647v-3.603l-3.65-.001v.018l-.017-.017.017-.001v-7.42l-3.7-.001.001.018-.017-.017.017-.001v-3.71H138.4v.019l-.02-.019h.02v-7.264H131v-3.671h-3.086v-3.818h3.82l-.001 3.764h10.247v-3.742h3.674v-7.281l3.699-.003v-3.716h3.737v-3.685h3.539v3.71l3.697-.001v-2.974h-3.477v.02l-.018-.02h.018v-7.64h-7.345v-3.894l11.053-.001zM94.708 236.17v24.691H70.011v-24.69h24.697zm33.17 7.735v2.334l1.26-.008 1.825-.012v7.38h-3.61v3.565h3.577v3.697h-7.106v-3.653h-3.647v-3.563h3.603v-3.71h3.531v-2.211h-1.133l-1.722.001h-3.49v-3.82h6.912zm39.85 10.502h-3.648v3.54h3.649v-3.54zm-21.331.296v3.055h-3.821v-3.054l3.82-.001zm-7.717-3.854v6.907h-3.84v-6.907h3.84zm-47.496-11.118H73.506v17.626h17.678v-17.626zm-3.422 3.384v10.802H76.957v-10.802h10.805zm54.78 3.878.001 3.817h-3.056v-3.817h3.056zm17.788-.038h-10.928v3.662h10.929l-.001-3.662zm-22.422-3.051v3.816l-3.455.002-3.454.003v-3.82l6.909-.001zm-13.583-11.573v3.686h3.57v3.683h-7.262l-.001 3.595h-3.678v3.678h-3.666v-7.232h3.623v-3.689h-3.66l-.001-3.721h11.075zm32.269-.073h-10.902v10.94h10.902v-10.94zm18.38 7.77v3.07h-3.84v-3.07h3.84zm-69.478.016V241.983l-.001 1.115-1.911-.007-1.91-.01.011-1.517.01-1.518h3.801zm47.096-3.874v3.087h-3.088v-3.087h3.088zm-75.848-40.104v3.48h7.17v10.905l7.303-.001.01-1.807.009-1.807h3.646v-3.63h3.5v7.249h10.929v3.489h-7.253v3.649h-.017l-.001.016h.018v-.016h7.298v2.428l-.002.738h6.964v3.872h-3.64v7.662h-7.165v-3.849h3.65V221.2h-3.438v3.645H91.26v3.515h10.798v10.878h-3.63v-7.216H76.793v-7.125h3.601v-7.285h-3.617v-3.653h-3.66v.018l-.017-.018h.018v-3.491h7.243v-3.648l-7.243-.001v.019l-.02-.018.02-.001v-10.752h3.626zm-3.665 17.747v18.5h-3.84v-18.5h3.84zm79.97 7.418h-3.68l.001 7.247h7.22v-3.57h-3.542v-3.677zm-21.8-10.522v3.504h7.45v3.58h-7.448v2.251l-.001.715h.676l2.894-.001v3.819H131v-3.234l-3.496.002v7.09h-7.273V225h3.632v-7.19h-3.667l-.001-3.61h7.328l-.001-3.474 1.855-.007 1.872-.009zm-43.7 14.184h-3.58v3.44h3.58v-3.44zm51.15-.28v3.07h-3.838v-3.071h3.839zm6.947-10.047v6.944H138.7v-3.48h3.394v-3.464h3.552zm-43.606 3.043H91.264v3.585h10.777l-.001-3.585zm72.161.043v3.087h-3.087v-3.087h3.087zm-42.447-14.66-.001 3.086h3.088v3.859h-3.86v-3.087h-3.086l-.001-.032-.009 1.755-.01 1.839h-7.27v3.574h-3.668v3.666h-3.682v-7.2h3.624v-3.723h-3.63l-.001-3.718 5.528.013 5.526.012v3.68h3.593v-3.724h3.859zm-44.215 11.019H80.41v3.584h7.129v-3.584zm61.965-6.39v6.945h-3.858v-6.944h3.858zm-54.672 2.846-3.6-.001.001 3.466h3.599v-3.465zm76.282.256v3.056h-3.07v-3.056h3.07zm-98.038-4.626v3.82l-3.836.001v-3.82l3.836-.001zm37.048-3.085v3.838h-3.82v-3.838h3.82zm-15.433-3.106-.001 3.439H91.2v3.487h-3.439v-6.926h6.929zm79.51 3.086v3.087h-3.087v-3.087h3.087zm-27.802-24.69v6.62l3.183.002v3.593h3.707v-3.552h3.582v3.6l3.72-.001v7.237h3.698v3.557l3.718-.001v3.616h-7.395v-3.655h-7.334v-7.097h-3.691v3.616h-3.7v-3.603h-11.014v3.605h-3.678v2.964h7.159v-3.527h7.292v3.519h-3.698v7.284h-3.55v-3.61h-7.416v-3.118l-3.103-.013.008 1.725.008 1.927-1.544-.01-1.53-.008v-3.818h2.667v-3.334l-3.583-.001v.018l-.02-.017.02-.001v-7.244h-3.708l-.001-3.653h3.707v-3.516h3.564v3.518l14.71-.001.002 3.589h3.724v-3.285h-3.327v.019l-.018-.019h.018v-6.925h3.823zm-37.3 6.172v3.675h-3.617v7.441h3.635v-3.651h7.201v3.67h-3.62l-.001 4.92-.001 2.419-3.556.024v-3.682h-3.698v3.682H101.8v-3.707h-3.696v-3.236h-6.465v-3.821h6.91l-.001 3.438h3.182v-7.487l-10.861-.001v.018l-.02-.017.02-.001v-3.684h18.23zm62.015 11.574v3.07h-3.07v-3.07h3.07zm-46.327.015v3.054h-3.838v-3.054h3.838zm-44.743-3.873v3.838h-3.84l.001-3.838h3.84zm94.93-3.838v3.838h-3.84v-3.84l3.84.002zm-87.194 0 1.912.012 1.908.012v3.796h-3.82v-3.82zm28.886-10.805v3.651h3.492v3.51l-3.468.002v3.622h-3.46v-10.785h3.436zm-29.693 7.699v2.047l-.002 1.018-.073.012a.593.593 0 0 1-.092.008H68.638c-.041 0-.082-.01-.17-.023v-3.062h18.505zm84.125-.772v3.838h-3.07v-3.838h3.07zm-6.93 0v3.839l-3.84-.001v-3.838h3.84zm-62.514-10.03v6.944h-3.087v-6.944h3.087zm8.47-4.61v11.554h-3.82v-11.554h3.82zm64.077-13.137v24.69h-24.697v-24.69h24.697zm-39.512 10.048v3.53h3.726v-3.528h3.557v3.546h3.674v3.704h-7.232v7.39h-3.687v-3.68h-2.993v3.663l-3.818-.001v-3.817l1.908-.001 1.178-.002v-5.322l-.001-5.482h3.688zm-39.98-10.048v24.69H70.01v-24.69h24.697zm18.539 13.137h-.017l13.846.018h.797v7.674h-3.572v3.842h-3.68l.002-3.842h-3.696v.019l-.02-.019h.02v-3.821h-3.68V169.835zm-22.05-9.625H73.522v17.682h17.676V160.21zm79.546.015h-17.688v17.665h17.688v-17.665zm-3.489 3.417v10.803H156.45v-10.803h10.805zm-79.493 0v10.803H76.957v-10.803h10.805zm17.46-8.487v7.332h3.751v-3.614h7.345v3.629h-3.692v7.269l-3.621.024v-3.527h-3.765v3.527h-7.437v-3.546h3.655v-3.71h-3.663v-3.687h3.697v-3.697h3.73zm18.042 8.487v3.087h-3.087v-3.087h3.087zm8.469-.753v3.82l-3.838.002v-3.822h3.838zm6.947 0v3.819h-3.82v-3.82l3.82.001zm6.966-6.962v6.897h-3.592v-3.414h-7.22v3.444h-3.635v-3.469h-7.163v-3.458h21.61z" fill="#2C2044"/>
                <path d="M56.673 297.38c.78 0 1.473-.168 2.077-.505a3.443 3.443 0 0 0 1.397-1.438c.327-.622.49-1.343.49-2.163v-.433c0-.808-.162-1.525-.487-2.151a3.485 3.485 0 0 0-1.376-1.45c-.592-.34-1.27-.511-2.036-.511h-2.555v8.651h2.49zm-.006-1.2h-.98v-6.239h1.051c.777 0 1.37.248 1.778.743.408.495.612 1.212.612 2.15v.482c-.008.923-.223 1.631-.645 2.124-.422.493-1.027.74-1.816.74zm8.16 1.32c.535 0 1.018-.107 1.448-.319a2.6 2.6 0 0 0 1.03-.894l-.778-.743c-.416.535-.955.802-1.616.802-.472 0-.863-.154-1.174-.463-.311-.31-.489-.729-.532-1.26h4.202v-.582c0-1.022-.239-1.812-.716-2.37-.478-.56-1.154-.839-2.03-.839-.55 0-1.05.14-1.498.422a2.827 2.827 0 0 0-1.043 1.18c-.247.505-.371 1.078-.371 1.72v.178c0 .959.284 1.726.853 2.303.568.576 1.31.864 2.225.864zm1.153-3.934H63.23c.067-.496.223-.882.466-1.16.244-.276.564-.415.96-.415.4 0 .713.124.94.371.225.248.354.613.385 1.097v.107zm3.97 3.814v-4.575c.286-.527.72-.79 1.302-.79.4 0 .689.098.865.294.176.196.264.498.264.906v4.165h1.445v-4.248c-.024-1.533-.706-2.3-2.045-2.3-.772 0-1.397.287-1.872.862l-.042-.743h-1.36v6.43h1.444zm6.164-7.338c.261 0 .463-.072.606-.217a.743.743 0 0 0 .214-.544.76.76 0 0 0-.214-.552c-.143-.147-.345-.22-.606-.22-.262 0-.463.073-.603.22a.766.766 0 0 0-.211.552c0 .218.07.4.21.544.141.145.342.217.604.217zm.719 7.338v-6.429h-1.444v6.43h1.444zm3.994.12c.777 0 1.405-.18 1.884-.539.48-.358.72-.827.72-1.405 0-.345-.08-.638-.236-.88-.156-.24-.396-.448-.719-.62-.323-.173-.767-.321-1.334-.446-.567-.125-.943-.248-1.13-.371a.585.585 0 0 1-.279-.517c0-.246.1-.442.3-.588.2-.147.46-.22.776-.22.34 0 .614.092.82.276a.89.89 0 0 1 .31.692h1.444c0-.606-.237-1.099-.71-1.48-.474-.38-1.095-.57-1.864-.57-.721 0-1.315.186-1.783.559-.467.372-.701.836-.701 1.39 0 .662.36 1.167 1.082 1.515.328.159.738.29 1.23.393.491.103.843.221 1.055.356.212.135.318.33.318.588 0 .234-.1.423-.297.568-.199.144-.488.217-.868.217-.392 0-.707-.092-.945-.277-.238-.184-.367-.446-.386-.787H78.11c0 .384.115.743.345 1.076.23.332.55.594.962.784.412.19.882.285 1.409.285zm6.692 0c.535 0 1.018-.107 1.447-.319a2.6 2.6 0 0 0 1.032-.894l-.779-.743c-.416.535-.955.802-1.617.802-.471 0-.862-.154-1.173-.463-.311-.31-.489-.729-.532-1.26h4.202v-.582c0-1.022-.24-1.812-.717-2.37-.477-.56-1.154-.839-2.03-.839-.55 0-1.05.14-1.497.422a2.827 2.827 0 0 0-1.043 1.18c-.248.505-.371 1.078-.371 1.72v.178c0 .959.284 1.726.852 2.303.569.576 1.311.864 2.226.864zm1.153-3.934H85.92c.068-.496.223-.882.467-1.16.244-.276.564-.415.96-.415.4 0 .713.124.939.371.226.248.355.613.386 1.097v.107zm9.272 3.814v-7.439h2.698v-1.212h-6.864v1.212h2.674v7.44h1.492zm6.419.12c.594 0 1.118-.138 1.572-.41.453-.274.802-.66 1.046-1.16.244-.499.365-1.065.365-1.699l-.006-.339c-.043-.923-.335-1.663-.876-2.222-.541-.558-1.245-.838-2.113-.838-.587 0-1.106.136-1.557.407-.452.272-.803.66-1.052 1.165a3.79 3.79 0 0 0-.375 1.702v.072c0 1.006.273 1.81.818 2.415.544.604 1.27.906 2.178.906zm0-1.154c-.488 0-.868-.187-1.141-.561-.274-.374-.41-.892-.41-1.554 0-.745.138-1.304.416-1.679a1.326 1.326 0 0 1 1.123-.561c.48 0 .859.19 1.138.57.28.38.42.896.42 1.545 0 .733-.137 1.29-.408 1.67-.271.38-.65.57-1.138.57zm5.646 1.034v-4.397c.23-.507.676-.76 1.337-.76.202 0 .398.016.589.047l.006-1.355a1.352 1.352 0 0 0-.512-.083c-.618 0-1.101.28-1.45.838l-.035-.719h-1.38v6.43h1.445zm4.28 0v-4.397c.229-.507.675-.76 1.336-.76.203 0 .399.016.589.047l.006-1.355a1.352 1.352 0 0 0-.511-.083c-.618 0-1.102.28-1.45.838l-.036-.719h-1.379v6.43h1.444zm5.67.12c.534 0 1.017-.107 1.446-.319a2.6 2.6 0 0 0 1.032-.894l-.779-.743c-.416.535-.955.802-1.617.802-.471 0-.862-.154-1.173-.463-.311-.31-.489-.729-.532-1.26h4.202v-.582c0-1.022-.24-1.812-.717-2.37-.477-.56-1.154-.839-2.03-.839-.55 0-1.05.14-1.497.422a2.827 2.827 0 0 0-1.043 1.18c-.248.505-.371 1.078-.371 1.72v.178c0 .959.284 1.726.852 2.303.569.576 1.31.864 2.226.864zm1.152-3.934h-2.752c.068-.496.223-.882.467-1.16.244-.276.564-.415.96-.415.4 0 .713.124.939.371.226.248.355.613.386 1.097v.107zm4.969 3.933c.777 0 1.405-.18 1.884-.538.48-.358.72-.827.72-1.405 0-.345-.08-.638-.236-.88-.156-.24-.396-.448-.719-.62-.323-.173-.767-.321-1.334-.446-.567-.125-.943-.248-1.13-.371a.585.585 0 0 1-.279-.517c0-.246.1-.442.3-.588.2-.147.46-.22.776-.22.34 0 .614.092.82.276a.89.89 0 0 1 .31.692h1.444c0-.606-.237-1.099-.71-1.48-.474-.38-1.095-.57-1.864-.57-.721 0-1.315.186-1.783.559-.467.372-.701.836-.701 1.39 0 .662.36 1.167 1.081 1.515.33.159.74.29 1.23.393.492.103.844.221 1.056.356.212.135.318.33.318.588 0 .234-.1.423-.298.568-.198.144-.487.217-.867.217-.393 0-.708-.092-.945-.277-.238-.184-.367-.446-.387-.787h-1.402c0 .384.115.743.344 1.076.23.332.551.594.963.784.412.19.882.285 1.409.285zm8.535-.119v-3.666h3.482v-1.2h-3.482v-2.573h3.994v-1.212h-5.498v8.651h1.504zm7.875.12c.534 0 1.017-.107 1.447-.319a2.6 2.6 0 0 0 1.031-.894l-.779-.743c-.416.535-.955.802-1.616.802-.472 0-.863-.154-1.174-.463-.311-.31-.488-.729-.532-1.26h4.202v-.582c0-1.022-.239-1.812-.716-2.37-.478-.56-1.154-.839-2.03-.839-.55 0-1.05.14-1.498.422a2.827 2.827 0 0 0-1.043 1.18c-.247.505-.371 1.078-.371 1.72v.178c0 .959.284 1.726.853 2.303.568.576 1.31.864 2.226.864zm1.153-3.934h-2.752c.067-.496.223-.882.466-1.16.244-.276.564-.415.96-.415.4 0 .713.124.94.371.225.248.354.613.386 1.097v.107zm3.988 3.814v-4.397c.23-.507.675-.76 1.337-.76.202 0 .398.016.588.047l.006-1.355a1.352 1.352 0 0 0-.51-.083c-.619 0-1.102.28-1.451.838l-.036-.719h-1.379v6.43h1.445zm4.261 0v-4.575c.285-.527.72-.79 1.302-.79.4 0 .688.098.864.294.177.196.265.498.265.906v4.165h1.444v-4.248c-.024-1.533-.705-2.3-2.044-2.3-.773 0-1.397.287-1.873.862l-.041-.743h-1.361v6.43h1.444zm8.404-7.326 1.646-1.8h-1.646l-1.159 1.8h1.159zm-1.07 7.445c.666 0 1.228-.24 1.688-.719.048.277.103.477.166.6h1.474v-.1c-.162-.345-.243-.807-.243-1.385v-2.9c-.012-.685-.242-1.217-.69-1.595-.447-.379-1.048-.568-1.8-.568-.496 0-.945.087-1.347.262-.402.174-.72.415-.954.722-.233.307-.35.636-.35.989h1.444c0-.254.105-.462.315-.627.21-.164.48-.246.808-.246.38 0 .664.1.85.3.186.2.28.466.28.799v.422h-.886c-.947 0-1.675.183-2.184.55-.51.366-.764.892-.764 1.577 0 .543.204.998.612 1.367.408.368.935.552 1.581.552zm.268-1.159c-.31 0-.556-.082-.74-.246-.185-.165-.277-.385-.277-.663 0-.34.135-.604.404-.79.27-.186.672-.28 1.207-.28h.779v1.213a1.39 1.39 0 0 1-.568.558c-.252.14-.52.208-.805.208zm5.753 1.04v-4.575c.285-.527.719-.79 1.301-.79.4 0 .689.098.865.294.176.196.265.498.265.906v4.165h1.444v-4.248c-.024-1.533-.705-2.3-2.045-2.3-.772 0-1.396.287-1.872.862l-.041-.743h-1.361v6.43h1.444zm7.601.12c.721 0 1.298-.262 1.73-.785l.071.665h1.308v-9.126h-1.444v3.291c-.42-.475-.971-.713-1.653-.713-.772 0-1.389.3-1.848.9-.46.6-.69 1.396-.69 2.386 0 1.042.233 1.866.699 2.472.465.606 1.075.91 1.827.91zm.369-1.177c-.464 0-.821-.184-1.073-.55-.252-.366-.377-.876-.377-1.53 0-.745.126-1.302.38-1.673.254-.37.614-.555 1.082-.555.59 0 1.018.257 1.284.772v2.745c-.274.527-.706.79-1.296.79zm7.078 1.176c.535 0 1.018-.106 1.448-.318a2.6 2.6 0 0 0 1.03-.894l-.778-.743c-.416.535-.955.802-1.616.802-.472 0-.863-.154-1.174-.463-.311-.31-.489-.729-.532-1.26h4.202v-.582c0-1.022-.239-1.812-.716-2.37-.478-.56-1.154-.839-2.03-.839-.55 0-1.05.14-1.498.422a2.827 2.827 0 0 0-1.043 1.18c-.247.505-.371 1.078-.371 1.72v.178c0 .959.284 1.726.853 2.303.568.576 1.31.864 2.225.864zm1.153-3.933h-2.751c.067-.496.223-.882.466-1.16.244-.276.564-.415.96-.415.4 0 .713.124.94.371.225.248.354.613.385 1.097v.107zm7.513 3.814v-1.152h-3.424l3.3-4.362v-.915h-5.035v1.165h3.203l-3.262 4.32v.944h5.218z" fill="#742384" fill-rule="nonzero"/>
                <path d="M35.13 82.901v-2.948l-.099-3.166 2.481 6.114h.764l2.486-6.13-.093 3.182v2.948h.998v-7.57h-1.295l-2.475 6.177-2.476-6.177h-1.29v7.57h1zm9.975.104c.724 0 1.274-.22 1.648-.66l.021.556h.915v-5.625h-.962v4.092c-.242.547-.731.821-1.466.821-.694 0-1.04-.426-1.04-1.279v-3.634h-.962v3.66c.003.683.162 1.199.475 1.547.314.348.77.522 1.37.522zm6.38 0c.944 0 1.65-.362 2.122-1.086l-.587-.458a2.169 2.169 0 0 1-.62.551c-.235.139-.523.208-.862.208-.479 0-.873-.17-1.183-.512-.31-.341-.473-.79-.487-1.344h3.812v-.4c0-.898-.203-1.588-.608-2.07-.406-.481-.974-.722-1.706-.722a2.25 2.25 0 0 0-1.245.372 2.494 2.494 0 0 0-.895 1.03c-.213.438-.32.936-.32 1.494v.177c0 .838.24 1.508.718 2.01.478.5 1.099.75 1.862.75zm1.233-3.431H49.9c.062-.51.225-.906.488-1.188.264-.283.59-.424.978-.424.402 0 .721.135.957.403.236.269.367.647.395 1.136v.073zm4.145 3.431c.641 0 1.163-.151 1.565-.455a1.44 1.44 0 0 0 .604-1.208c0-.302-.072-.558-.216-.767-.144-.21-.365-.39-.663-.538-.299-.15-.688-.278-1.168-.385-.48-.108-.812-.22-.996-.338a.583.583 0 0 1-.275-.525.72.72 0 0 1 .296-.598c.198-.153.472-.229.822-.229.34 0 .621.096.845.286.223.19.335.418.335.681h.968c0-.513-.199-.934-.596-1.263-.397-.33-.914-.494-1.552-.494-.607 0-1.105.16-1.495.478-.39.32-.585.71-.585 1.17 0 .277.068.517.205.718.137.2.348.374.634.52.286.145.673.27 1.16.374.487.104.829.228 1.025.372a.708.708 0 0 1 .293.605c0 .246-.11.443-.33.59-.22.148-.512.221-.876.221-.395 0-.713-.094-.954-.283a.996.996 0 0 1-.388-.767h-.962c0 .333.098.642.294.928.196.286.467.509.814.668.347.16.745.24 1.196.24zm5.065 0c.24 0 .486-.034.739-.104v-.78a2.33 2.33 0 0 1-.458.063c-.225 0-.385-.056-.478-.169-.094-.113-.14-.282-.14-.507v-3.489h1.05v-.743h-1.05v-1.362h-.963v1.362h-1.024v.743h1.024v3.489c0 .478.11.847.328 1.107.218.26.542.39.972.39zm2.798-.104v-3.993c.225-.537.654-.805 1.285-.805.17 0 .327.012.473.036v-.894c-.097-.049-.24-.073-.427-.073-.579 0-1.026.251-1.341.754l-.016-.65h-.936V82.9h.962zm4.379.104c.62 0 1.154-.232 1.602-.696.034.284.08.481.135.592h1.009v-.083c-.132-.305-.198-.716-.198-1.232v-2.59c-.014-.568-.205-1.014-.572-1.338-.368-.324-.875-.486-1.524-.486-.409 0-.784.076-1.126.229a2.04 2.04 0 0 0-.81.621c-.2.262-.3.533-.3.814h.967c0-.246.116-.456.349-.63.232-.173.52-.26.863-.26.392 0 .688.1.89.3.2.199.3.467.3.803v.442h-.935c-.808 0-1.435.162-1.88.486-.446.324-.668.779-.668 1.365 0 .481.177.88.533 1.193.355.314.81.47 1.365.47zm.14-.837c-.315 0-.574-.085-.775-.254-.2-.17-.301-.406-.301-.708 0-.69.59-1.034 1.768-1.034h.754v1.154c-.121.25-.317.452-.588.608-.27.156-.556.234-.858.234zm8.196.837c.24 0 .486-.034.739-.104v-.78a2.33 2.33 0 0 1-.458.063c-.225 0-.385-.056-.478-.169-.094-.113-.14-.282-.14-.507v-3.489h1.05v-.743h-1.05v-1.362h-.963v1.362h-1.024v.743h1.024v3.489c0 .478.11.847.328 1.107.218.26.542.39.972.39zm3.661 0c.725 0 1.274-.22 1.649-.66l.02.556h.916v-5.625h-.962v4.092c-.243.547-.732.821-1.467.821-.693 0-1.04-.426-1.04-1.279v-3.634h-.962v3.66c.004.683.162 1.199.476 1.547.314.348.77.522 1.37.522zm11.961 1.175.682-.629-1.353-1.06c.42-.298.746-.712.978-1.24.232-.529.349-1.159.349-1.89v-.484c0-.738-.125-1.384-.375-1.936-.25-.553-.606-.977-1.069-1.272-.462-.294-.999-.442-1.61-.442-.595 0-1.125.149-1.588.445-.463.296-.82.724-1.074 1.282-.253.558-.38 1.2-.38 1.928v.546c.008.714.138 1.343.393 1.885.255.543.613.96 1.074 1.253.461.293.99.44 1.586.44.278 0 .541-.032.79-.094l1.597 1.268zm-2.387-2.022c-.645 0-1.148-.25-1.51-.749-.363-.499-.544-1.182-.544-2.048v-.557c.01-.852.197-1.519.56-1.999.361-.48.856-.72 1.484-.72.659 0 1.166.242 1.521.726.355.483.533 1.17.533 2.061v.562c-.01.876-.192 1.55-.546 2.02-.354.47-.853.704-1.498.704zm5.58.743V79.84h1.779l1.643 3.062h1.072v-.062l-1.779-3.213c.454-.173.809-.435 1.064-.785.254-.35.382-.76.382-1.232 0-.742-.23-1.307-.69-1.695-.459-.388-1.115-.583-1.968-.583h-2.506v7.57h1.003zm1.535-3.878h-1.535v-2.87h1.53c.526.003.93.13 1.208.38.28.249.42.608.42 1.076 0 .43-.147.773-.44 1.03-.293.256-.688.384-1.183.384zm7.473 6.041v-2.709c.391.434.929.65 1.612.65.669 0 1.2-.261 1.591-.785.392-.523.588-1.213.588-2.069v-.088c0-.908-.197-1.617-.59-2.127-.394-.51-.929-.764-1.605-.764-.697 0-1.241.243-1.633.728l-.047-.624h-.879v7.788h.963zm1.32-2.844c-.592 0-1.033-.256-1.32-.77v-2.687c.29-.517.728-.775 1.31-.775.472 0 .843.184 1.113.551.27.368.406.869.406 1.503 0 .72-.136 1.264-.409 1.63a1.3 1.3 0 0 1-1.1.548zm5.43.785c.62 0 1.154-.232 1.602-.696.034.284.08.481.135.592h1.009v-.083c-.132-.305-.198-.716-.198-1.232v-2.59c-.014-.568-.205-1.014-.572-1.338-.368-.324-.875-.486-1.524-.486-.409 0-.784.076-1.126.229a2.04 2.04 0 0 0-.811.621c-.2.262-.299.533-.299.814h.967c0-.246.116-.456.349-.63.232-.173.52-.26.863-.26.392 0 .688.1.89.3.2.199.3.467.3.803v.442h-.935c-.808 0-1.435.162-1.88.486-.446.324-.668.779-.668 1.365 0 .481.177.88.533 1.193.355.314.81.47 1.365.47zm.14-.837c-.315 0-.574-.085-.775-.254-.2-.17-.301-.406-.301-.708 0-.69.59-1.034 1.768-1.034h.754v1.154c-.121.25-.317.452-.588.608-.27.156-.556.234-.858.234zm4.878.733v-3.993c.226-.537.654-.805 1.285-.805.17 0 .327.012.473.036v-.894c-.097-.049-.24-.073-.426-.073-.58 0-1.027.251-1.342.754l-.016-.65h-.936V82.9h.962zm4.379.104c.62 0 1.155-.232 1.602-.696.034.284.08.481.135.592h1.009v-.083c-.132-.305-.198-.716-.198-1.232v-2.59c-.014-.568-.204-1.014-.572-1.338-.367-.324-.875-.486-1.524-.486-.409 0-.784.076-1.125.229a2.04 2.04 0 0 0-.812.621c-.2.262-.299.533-.299.814h.968c0-.246.116-.456.348-.63.232-.173.52-.26.863-.26.392 0 .688.1.89.3.2.199.301.467.301.803v.442h-.936c-.808 0-1.434.162-1.88.486-.445.324-.668.779-.668 1.365 0 .481.178.88.533 1.193.355.314.81.47 1.365.47zm.14-.837c-.315 0-.573-.085-.774-.254-.202-.17-.302-.406-.302-.708 0-.69.59-1.034 1.768-1.034h.754v1.154c-.121.25-.317.452-.588.608-.27.156-.556.234-.858.234zm7.515.733v-3.993c.225-.537.654-.805 1.285-.805.17 0 .327.012.473.036v-.894c-.097-.049-.24-.073-.427-.073-.579 0-1.026.251-1.341.754l-.016-.65h-.936V82.9h.962zm4.977.104c.943 0 1.65-.362 2.122-1.086l-.588-.458a2.169 2.169 0 0 1-.619.551c-.236.139-.523.208-.863.208-.479 0-.873-.17-1.183-.512-.31-.341-.473-.79-.486-1.344h3.812v-.4c0-.898-.203-1.588-.609-2.07-.406-.481-.974-.722-1.706-.722a2.25 2.25 0 0 0-1.245.372 2.494 2.494 0 0 0-.895 1.03c-.213.438-.32.936-.32 1.494v.177c0 .838.24 1.508.718 2.01.479.5 1.1.75 1.862.75zm1.232-3.431h-2.818c.062-.51.225-.906.489-1.188.263-.283.589-.424.977-.424.402 0 .721.135.957.403.236.269.368.647.395 1.136v.073zm4.332 3.431c.382 0 .743-.086 1.085-.26.341-.173.614-.405.819-.696.204-.291.315-.598.333-.92h-.91c-.028.311-.17.571-.427.78a1.386 1.386 0 0 1-.9.311c-.495 0-.877-.175-1.144-.525-.267-.35-.4-.849-.4-1.497v-.182c0-.666.134-1.174.403-1.526.269-.352.647-.528 1.136-.528.364 0 .67.117.918.351.248.234.386.533.414.897h.91c-.028-.603-.25-1.094-.669-1.471-.417-.378-.942-.567-1.573-.567-.513 0-.958.118-1.334.353a2.297 2.297 0 0 0-.866.994c-.2.426-.301.913-.301 1.46v.162c0 .887.226 1.586.678 2.098.453.51 1.062.766 1.828.766zm3.89-6.675c.188 0 .33-.052.427-.156a.55.55 0 0 0 .145-.39.568.568 0 0 0-.145-.395c-.097-.108-.24-.162-.427-.162s-.328.054-.423.162a.574.574 0 0 0-.144.395c0 .156.048.286.144.39.095.104.236.156.423.156zm.474 6.571v-5.625h-.962V82.9h.962zm4.118.104c.666 0 1.196-.26 1.592-.782.395-.522.593-1.212.593-2.072v-.083c0-.898-.195-1.605-.586-2.121-.39-.517-.926-.775-1.609-.775-.683 0-1.219.24-1.607.723v-2.98h-.962v7.986h.884l.047-.65c.388.503.938.754 1.648.754zm-.239-.816c-.624 0-1.083-.294-1.378-.884v-2.433c.277-.59.733-.884 1.368-.884.475 0 .839.179 1.092.536.253.357.38.863.38 1.518 0 .717-.129 1.255-.385 1.612-.257.357-.616.535-1.077.535zm4.207-5.86c.188 0 .33-.051.427-.155a.55.55 0 0 0 .145-.39.568.568 0 0 0-.145-.395c-.097-.108-.24-.162-.427-.162s-.328.054-.424.162a.574.574 0 0 0-.143.395c0 .156.048.286.143.39.096.104.237.156.424.156zm.474 6.572v-5.625h-.963V82.9h.963zm2.501 0v-3.993c.225-.537.653-.805 1.284-.805.17 0 .328.012.474.036v-.894c-.097-.049-.24-.073-.427-.073-.579 0-1.026.251-1.341.754l-.016-.65h-.936V82.9h.962zm5.528 2.272c.763 0 1.32-.467 1.67-1.403l2.262-6.494h-1.03l-1.31 4.216-1.405-4.216h-1.05l2.007 5.563-.213.572c-.118.35-.268.59-.45.723-.182.131-.436.197-.762.197l-.26-.02v.78l.359.067.182.015zm6.527-2.168c.62 0 1.154-.232 1.601-.696.035.284.08.481.136.592h1.008v-.083c-.131-.305-.197-.716-.197-1.232v-2.59c-.014-.568-.205-1.014-.572-1.338-.368-.324-.876-.486-1.524-.486-.409 0-.784.076-1.126.229a2.04 2.04 0 0 0-.811.621c-.2.262-.3.533-.3.814h.968c0-.246.116-.456.349-.63.232-.173.52-.26.863-.26.392 0 .688.1.89.3.2.199.3.467.3.803v.442h-.935c-.808 0-1.435.162-1.88.486-.446.324-.669.779-.669 1.365 0 .481.178.88.534 1.193.355.314.81.47 1.365.47zm.14-.837c-.315 0-.574-.085-.775-.254-.2-.17-.301-.406-.301-.708 0-.69.589-1.034 1.768-1.034h.754v1.154c-.122.25-.317.452-.588.608-.27.156-.556.234-.858.234zm4.878 2.896v-2.709c.392.434.93.65 1.612.65.67 0 1.2-.261 1.592-.785.391-.523.587-1.213.587-2.069v-.088c0-.908-.197-1.617-.59-2.127-.394-.51-.928-.764-1.604-.764-.697 0-1.242.243-1.633.728l-.047-.624h-.879v7.788h.962zm1.321-2.844c-.593 0-1.033-.256-1.32-.77v-2.687c.29-.517.727-.775 1.31-.775.471 0 .842.184 1.112.551.27.368.406.869.406 1.503 0 .72-.136 1.264-.408 1.63a1.3 1.3 0 0 1-1.1.548zm6.027.785c.943 0 1.65-.362 2.122-1.086l-.588-.458a2.169 2.169 0 0 1-.618.551c-.236.139-.524.208-.864.208-.478 0-.872-.17-1.183-.512-.31-.341-.472-.79-.486-1.344h3.812v-.4c0-.898-.203-1.588-.609-2.07-.405-.481-.974-.722-1.705-.722a2.25 2.25 0 0 0-1.246.372 2.494 2.494 0 0 0-.894 1.03c-.214.438-.32.936-.32 1.494v.177c0 .838.24 1.508.718 2.01.478.5 1.099.75 1.861.75zm1.233-3.431h-2.819c.063-.51.226-.906.489-1.188.264-.283.59-.424.978-.424.402 0 .72.135.957.403.235.269.367.647.395 1.136v.073zm4.384 3.431c.506 0 .954-.12 1.344-.364.39-.242.69-.581.9-1.016a3.35 3.35 0 0 0 .314-1.474v-.068c0-.88-.236-1.585-.71-2.116-.473-.53-1.092-.795-1.859-.795-.495 0-.937.12-1.323.359-.387.239-.688.579-.905 1.019-.217.44-.325.936-.325 1.487v.067c0 .874.237 1.576.71 2.106.473.53 1.091.795 1.854.795zm0-.785a1.39 1.39 0 0 1-1.162-.566c-.29-.378-.435-.879-.435-1.503 0-.704.146-1.244.437-1.622a1.382 1.382 0 0 1 1.15-.567c.485 0 .874.192 1.167.575.293.383.44.883.44 1.5 0 .69-.145 1.226-.432 1.609-.288.383-.676.574-1.165.574zm5.835.785c.641 0 1.163-.151 1.565-.455a1.44 1.44 0 0 0 .603-1.208c0-.302-.072-.558-.216-.767-.143-.21-.364-.39-.663-.538-.298-.15-.687-.278-1.167-.385-.48-.108-.812-.22-.996-.338a.583.583 0 0 1-.276-.525.72.72 0 0 1 .297-.598c.197-.153.471-.229.822-.229.34 0 .621.096.845.286.223.19.335.418.335.681h.967c0-.513-.198-.934-.595-1.263-.397-.33-.915-.494-1.552-.494-.607 0-1.106.16-1.496.478-.39.32-.585.71-.585 1.17 0 .277.069.517.206.718.137.2.348.374.634.52.286.145.673.27 1.16.374.487.104.829.228 1.024.372a.708.708 0 0 1 .294.605c0 .246-.11.443-.33.59-.22.148-.512.221-.876.221-.396 0-.714-.094-.955-.283a.996.996 0 0 1-.387-.767h-.962c0 .333.098.642.294.928.196.286.467.509.814.668.346.16.745.24 1.196.24zm8.128 0c.641 0 1.163-.151 1.565-.455a1.44 1.44 0 0 0 .604-1.208c0-.302-.072-.558-.216-.767-.144-.21-.365-.39-.663-.538-.298-.15-.688-.278-1.168-.385-.48-.108-.812-.22-.996-.338a.583.583 0 0 1-.275-.525.72.72 0 0 1 .296-.598c.198-.153.472-.229.822-.229.34 0 .621.096.845.286.224.19.335.418.335.681h.968c0-.513-.199-.934-.596-1.263-.397-.33-.914-.494-1.552-.494-.607 0-1.105.16-1.495.478-.39.32-.585.71-.585 1.17 0 .277.068.517.205.718.137.2.348.374.635.52.286.145.672.27 1.16.374.486.104.828.228 1.024.372a.708.708 0 0 1 .294.605c0 .246-.11.443-.33.59-.22.148-.513.221-.877.221-.395 0-.713-.094-.954-.283a.996.996 0 0 1-.388-.767h-.962c0 .333.098.642.294.928.196.286.467.509.814.668.347.16.745.24 1.196.24zm3.994-6.675c.187 0 .33-.052.426-.156a.55.55 0 0 0 .146-.39.568.568 0 0 0-.146-.395c-.097-.108-.239-.162-.426-.162s-.329.054-.424.162a.574.574 0 0 0-.143.395c0 .156.048.286.143.39.095.104.237.156.424.156zm.473 6.571v-5.625h-.962V82.9h.962zm2.502 0v-4.008c.131-.27.315-.489.55-.655.237-.167.51-.25.823-.25.384 0 .668.097.85.291.182.194.275.494.278.9V82.9h.962v-3.717c-.01-1.341-.61-2.012-1.8-2.012-.693 0-1.254.27-1.684.811l-.031-.707h-.91V82.9h.962zM50.49 98.217c.381 0 .743-.087 1.084-.26.342-.174.615-.406.82-.697.204-.291.315-.598.332-.92h-.91c-.028.312-.17.572-.427.78a1.386 1.386 0 0 1-.9.312c-.495 0-.876-.175-1.143-.526-.267-.35-.4-.849-.4-1.497v-.182c0-.665.134-1.174.402-1.526.269-.352.648-.528 1.137-.528.364 0 .67.117.917.351.248.234.386.533.414.897h.91c-.028-.603-.25-1.093-.668-1.471-.418-.378-.942-.567-1.573-.567-.514 0-.958.118-1.334.354a2.297 2.297 0 0 0-.866.993c-.201.426-.302.913-.302 1.46v.162c0 .887.226 1.587.679 2.098.452.511 1.062.767 1.828.767zm5.627 0c.506 0 .954-.122 1.344-.364.39-.243.69-.582.9-1.017.21-.435.314-.926.314-1.474v-.067c0-.88-.236-1.586-.71-2.116-.473-.53-1.093-.796-1.859-.796-.496 0-.937.12-1.323.359-.387.24-.688.579-.905 1.019-.217.44-.325.936-.325 1.487v.068c0 .873.236 1.575.71 2.105.473.53 1.09.796 1.854.796zm0-.785a1.39 1.39 0 0 1-1.163-.567c-.29-.378-.434-.879-.434-1.503 0-.703.146-1.244.437-1.622a1.382 1.382 0 0 1 1.15-.567c.485 0 .874.192 1.167.575.293.383.44.883.44 1.5 0 .69-.145 1.226-.432 1.61-.288.382-.677.574-1.165.574zm4.722.68v-4.107c.232-.537.664-.806 1.295-.806.8 0 1.2.41 1.2 1.227v3.687h.968V94.38c.038-.36.175-.648.411-.86.236-.214.532-.32.89-.32.433 0 .741.1.925.298.184.2.276.5.276.902v3.713h.962v-3.77c-.021-1.306-.649-1.96-1.883-1.96-.409 0-.763.083-1.063.25-.3.166-.544.384-.731.655-.284-.603-.82-.905-1.607-.905-.7 0-1.257.243-1.67.728l-.025-.624h-.91v5.626h.962zm9.34 2.164v-2.71c.391.434.929.65 1.612.65.669 0 1.2-.261 1.591-.784.392-.524.588-1.214.588-2.07v-.088c0-.908-.197-1.617-.59-2.127-.394-.509-.929-.764-1.605-.764-.697 0-1.24.243-1.633.728l-.047-.624h-.878v7.789h.962zm1.32-2.844c-.592 0-1.033-.257-1.32-.77v-2.688c.29-.516.728-.775 1.31-.775.472 0 .843.184 1.113.552.27.367.406.868.406 1.502 0 .721-.136 1.264-.408 1.63a1.3 1.3 0 0 1-1.1.549zm5.43.785c.62 0 1.154-.233 1.602-.697.034.284.08.482.135.593h1.009v-.084c-.132-.305-.198-.715-.198-1.232v-2.589c-.014-.568-.204-1.015-.572-1.339-.367-.324-.875-.486-1.524-.486-.409 0-.784.076-1.126.229a2.04 2.04 0 0 0-.81.621c-.2.262-.3.533-.3.814h.967c0-.246.117-.456.349-.63.232-.172.52-.26.863-.26.392 0 .688.1.89.3.2.2.301.467.301.803v.442h-.936c-.808 0-1.435.162-1.88.486-.446.324-.668.78-.668 1.365 0 .482.177.88.533 1.193.355.314.81.47 1.365.47zm.14-.837c-.315 0-.573-.085-.775-.255-.2-.17-.301-.406-.301-.707 0-.69.59-1.035 1.768-1.035h.754v1.154c-.121.25-.317.453-.588.609-.27.156-.556.234-.858.234zm4.878.733V94.12c.226-.538.654-.806 1.285-.806.17 0 .327.012.473.036v-.894c-.097-.049-.24-.073-.426-.073-.58 0-1.027.251-1.342.754l-.016-.65h-.936v5.626h.962zm4.286.104c.239 0 .485-.035.738-.104v-.78a2.33 2.33 0 0 1-.458.062c-.225 0-.385-.056-.478-.169-.094-.112-.14-.281-.14-.507v-3.488h1.05v-.744h-1.05v-1.362h-.963v1.362h-1.024v.744h1.024v3.488c0 .479.11.848.328 1.108.218.26.543.39.973.39zm2.407-6.676c.188 0 .33-.052.427-.156a.55.55 0 0 0 .145-.39.568.568 0 0 0-.145-.395c-.097-.108-.24-.161-.427-.161s-.328.053-.424.16a.574.574 0 0 0-.143.396c0 .156.048.286.143.39.096.104.237.156.424.156zm.474 6.572v-5.626h-.963v5.626h.963zm2.501 0V94.12c.225-.538.654-.806 1.284-.806.17 0 .328.012.474.036v-.894c-.097-.049-.24-.073-.427-.073-.579 0-1.026.251-1.341.754l-.016-.65h-.936v5.626h.962zm6.922.104c.239 0 .485-.035.738-.104v-.78a2.33 2.33 0 0 1-.457.062c-.226 0-.385-.056-.479-.169-.093-.112-.14-.281-.14-.507v-3.488h1.05v-.744H98.2v-1.362h-.962v1.362h-1.025v.744h1.025v3.488c0 .479.109.848.327 1.108.219.26.543.39.973.39zm3.66 0c.726 0 1.275-.22 1.65-.66l.02.556h.916v-5.626h-.963v4.092c-.242.548-.731.821-1.466.821-.693 0-1.04-.426-1.04-1.279v-3.634h-.962v3.66c.003.683.162 1.199.476 1.547.313.348.77.523 1.37.523zm7.646-.104v-4.009c.131-.27.315-.489.55-.655.237-.166.51-.25.823-.25.384 0 .668.098.85.292.182.194.275.494.278.9v3.722h.962v-3.718c-.01-1.341-.61-2.012-1.8-2.012-.693 0-1.254.27-1.684.811l-.031-.707h-.91v5.626h.962zm7.379-6.458 1.394-1.528h-1.165l-1.004 1.528h.775zm-.64 6.562c.725 0 1.274-.22 1.649-.66l.02.556h.916v-5.626h-.962v4.092c-.243.548-.732.821-1.467.821-.693 0-1.04-.426-1.04-1.279v-3.634h-.962v3.66c.004.683.162 1.199.476 1.547.314.348.77.523 1.37.523zm5.003-.104v-4.108c.233-.537.664-.806 1.295-.806.801 0 1.201.41 1.201 1.227v3.687h.968V94.38c.038-.36.175-.648.41-.86.236-.214.533-.32.89-.32.433 0 .742.1.926.298.183.2.275.5.275.902v3.713h.962v-3.77c-.02-1.306-.648-1.96-1.882-1.96-.41 0-.764.083-1.064.25-.3.166-.543.384-.73.655-.285-.603-.82-.905-1.607-.905-.7 0-1.257.243-1.67.728l-.026-.624h-.91v5.626h.962zm10.713.104c.943 0 1.65-.363 2.122-1.087l-.588-.457a2.169 2.169 0 0 1-.619.55c-.235.14-.523.209-.863.209-.478 0-.873-.171-1.183-.513-.31-.34-.472-.789-.486-1.344h3.812v-.4c0-.898-.203-1.587-.609-2.07-.405-.48-.974-.722-1.705-.722a2.25 2.25 0 0 0-1.246.372 2.494 2.494 0 0 0-.894 1.03c-.214.438-.32.936-.32 1.494v.177c0 .839.239 1.509.717 2.01.479.5 1.1.75 1.862.75zm1.233-3.432h-2.819c.062-.51.225-.905.489-1.188.263-.282.59-.424.978-.424.402 0 .72.135.956.403.236.269.368.648.396 1.136v.073zm3.037 3.328V94.12c.225-.538.653-.806 1.284-.806.17 0 .328.012.473.036v-.894c-.097-.049-.239-.073-.426-.073-.579 0-1.026.251-1.342.754l-.015-.65h-.936v5.626h.962zm4.95.104c.507 0 .955-.122 1.345-.364.39-.243.69-.582.9-1.017.21-.435.314-.926.314-1.474v-.067c0-.88-.236-1.586-.71-2.116-.473-.53-1.093-.796-1.859-.796-.496 0-.937.12-1.323.359-.387.24-.689.579-.905 1.019-.217.44-.325.936-.325 1.487v.068c0 .873.236 1.575.71 2.105.473.53 1.09.796 1.854.796zm0-.785a1.39 1.39 0 0 1-1.162-.567c-.29-.378-.434-.879-.434-1.503 0-.703.146-1.244.437-1.622a1.382 1.382 0 0 1 1.15-.567c.485 0 .874.192 1.167.575.293.383.44.883.44 1.5 0 .69-.145 1.226-.433 1.61-.287.382-.676.574-1.164.574zm8.379.785c.686 0 1.222-.236 1.606-.707l.047.603h.884v-7.986h-.962v2.932c-.385-.45-.906-.676-1.565-.676-.662 0-1.198.263-1.607.788-.41.525-.614 1.22-.614 2.082v.073c0 .86.206 1.556.617 2.09.41.534.942.8 1.594.8zm.239-.817c-.465 0-.829-.18-1.092-.54-.264-.36-.396-.86-.396-1.498 0-.714.132-1.253.396-1.617.263-.364.63-.546 1.102-.546.596 0 1.038.266 1.326.796v2.584c-.28.548-.726.821-1.336.821zm6.126.817c.943 0 1.65-.363 2.122-1.087l-.588-.457a2.169 2.169 0 0 1-.619.55c-.236.14-.523.209-.863.209-.479 0-.873-.171-1.183-.513-.31-.34-.473-.789-.486-1.344h3.811v-.4c0-.898-.202-1.587-.608-2.07-.406-.48-.974-.722-1.706-.722a2.25 2.25 0 0 0-1.245.372 2.494 2.494 0 0 0-.895 1.03c-.213.438-.32.936-.32 1.494v.177c0 .839.24 1.509.718 2.01.479.5 1.1.75 1.862.75zm1.232-3.432h-2.818c.062-.51.225-.905.489-1.188.263-.282.589-.424.977-.424.402 0 .721.135.957.403.236.269.368.648.395 1.136v.073zm6.969 3.432c.381 0 .743-.087 1.084-.26.342-.174.615-.406.82-.697.204-.291.315-.598.332-.92h-.91c-.028.312-.17.572-.426.78a1.386 1.386 0 0 1-.9.312c-.496 0-.877-.175-1.144-.526-.267-.35-.4-.849-.4-1.497v-.182c0-.665.134-1.174.402-1.526.27-.352.648-.528 1.137-.528.364 0 .67.117.918.351.248.234.385.533.413.897h.91c-.028-.603-.25-1.093-.668-1.471-.418-.378-.942-.567-1.573-.567-.513 0-.958.118-1.334.354a2.297 2.297 0 0 0-.866.993c-.201.426-.302.913-.302 1.46v.162c0 .887.227 1.587.679 2.098.452.511 1.062.767 1.828.767zm5.653 0c.943 0 1.65-.363 2.122-1.087l-.588-.457a2.169 2.169 0 0 1-.619.55c-.236.14-.523.209-.863.209-.479 0-.873-.171-1.183-.513-.31-.34-.473-.789-.486-1.344h3.811v-.4c0-.898-.202-1.587-.608-2.07-.406-.48-.974-.722-1.706-.722a2.25 2.25 0 0 0-1.245.372 2.494 2.494 0 0 0-.895 1.03c-.213.438-.32.936-.32 1.494v.177c0 .839.24 1.509.718 2.01.479.5 1.1.75 1.862.75zm1.232-3.432h-2.818c.062-.51.225-.905.489-1.188.263-.282.589-.424.977-.424.402 0 .721.135.957.403.236.269.368.648.395 1.136v.073zm3.12 3.328v-7.986h-.961v7.986h.962zm3.365.104c.725 0 1.274-.22 1.649-.66l.02.556h.916v-5.626h-.962v4.092c-.243.548-.732.821-1.467.821-.693 0-1.04-.426-1.04-1.279v-3.634h-.962v3.66c.004.683.162 1.199.476 1.547.314.348.77.523 1.37.523zm5.092-.104v-7.986h-.962v7.986h.962zm3.276.104c.62 0 1.154-.233 1.602-.697.034.284.08.482.135.593h1.009v-.084c-.132-.305-.198-.715-.198-1.232v-2.589c-.014-.568-.204-1.015-.572-1.339-.367-.324-.875-.486-1.524-.486-.409 0-.784.076-1.126.229a2.04 2.04 0 0 0-.81.621c-.2.262-.3.533-.3.814h.967c0-.246.117-.456.349-.63.232-.172.52-.26.863-.26.392 0 .688.1.89.3.2.2.301.467.301.803v.442h-.936c-.808 0-1.434.162-1.88.486-.446.324-.668.78-.668 1.365 0 .482.177.88.533 1.193.355.314.81.47 1.365.47zm.14-.837c-.315 0-.573-.085-.775-.255-.2-.17-.301-.406-.301-.707 0-.69.59-1.035 1.768-1.035h.754v1.154c-.121.25-.317.453-.588.609-.27.156-.556.234-.858.234zm4.878.733V94.12c.226-.538.654-.806 1.285-.806.17 0 .327.012.473.036v-.894c-.097-.049-.24-.073-.426-.073-.58 0-1.027.251-1.342.754l-.016-.65h-.936v5.626h.962zm3.256.057c.197 0 .347-.054.45-.161a.558.558 0 0 0 .153-.4.59.59 0 0 0-.153-.417c-.103-.11-.253-.166-.45-.166-.198 0-.346.056-.445.166a.602.602 0 0 0-.148.416c0 .16.05.293.148.4.099.108.247.162.445.162z" fill="#FFF" fill-rule="nonzero"/>
                <g transform="translate(11.411 383.324)">
                    <rect fill="#10CBB4" width="219.097" height="36.507" rx="6.085"/>
                    <path d="M39.122 22.555c.987 0 1.777-.258 2.372-.775.594-.517.935-1.237 1.022-2.16h-1.498c-.079.618-.267 1.06-.564 1.325-.298.266-.741.398-1.332.398-.646 0-1.136-.245-1.47-.736-.335-.492-.503-1.205-.503-2.14v-.766c.008-.923.187-1.623.538-2.1.35-.478.853-.717 1.507-.717.562 0 .99.138 1.28.413.292.276.473.724.544 1.346h1.498c-.095-.946-.434-1.68-1.016-2.198-.583-.52-1.351-.779-2.306-.779-.71 0-1.335.169-1.876.505-.54.337-.955.816-1.245 1.438-.289.622-.434 1.341-.434 2.157v.808c.012.797.161 1.496.446 2.098.286.602.69 1.066 1.216 1.393.525.327 1.132.49 1.821.49zm7.323 0c.594 0 1.118-.136 1.572-.41.453-.273.802-.66 1.046-1.158.243-.5.365-1.066.365-1.7l-.006-.338c-.043-.923-.336-1.664-.876-2.223-.541-.558-1.246-.837-2.113-.837-.587 0-1.106.135-1.558.407-.451.271-.802.66-1.051 1.164a3.79 3.79 0 0 0-.375 1.703v.07c0 1.007.272 1.812.817 2.416.545.604 1.271.906 2.179.906zm0-1.152c-.488 0-.868-.187-1.142-.562-.273-.374-.41-.892-.41-1.554 0-.744.139-1.304.416-1.678a1.326 1.326 0 0 1 1.124-.562c.48 0 .858.19 1.138.57.28.381.419.896.419 1.546 0 .732-.136 1.289-.407 1.67-.272.38-.651.57-1.138.57zm5.646 1.034v-4.659c.241-.471.652-.707 1.23-.707.753 0 1.14.378 1.159 1.135v4.23h1.444l-.006-4.408c.084-.285.23-.516.437-.693.208-.176.477-.264.805-.264.413 0 .708.095.886.285.178.19.267.49.267.898v4.183h1.445v-4.225c-.008-.765-.186-1.343-.532-1.735-.347-.392-.875-.588-1.584-.588-.848 0-1.506.328-1.973.986-.317-.658-.906-.986-1.766-.986-.784 0-1.402.263-1.854.79l-.041-.672h-1.361v6.43h1.444zm10.59 2.471V21.86c.425.464.99.695 1.695.695.76 0 1.367-.296 1.818-.888.452-.592.678-1.385.678-2.38v-.089c0-1.038-.223-1.849-.669-2.433-.445-.584-1.06-.876-1.845-.876-.73 0-1.306.257-1.73.772l-.06-.654h-1.33v8.901h1.444zm1.285-3.505c-.595 0-1.023-.25-1.284-.749v-2.852c.257-.487.681-.73 1.272-.73.475 0 .84.187 1.096.564.256.376.384.885.384 1.527 0 .752-.13 1.314-.39 1.684-.26.37-.619.556-1.078.556zm6.115 1.152c.666 0 1.229-.24 1.688-.719.048.278.103.478.167.6h1.474v-.1c-.163-.345-.244-.807-.244-1.385v-2.9c-.012-.685-.242-1.217-.69-1.595-.447-.378-1.047-.567-1.8-.567-.496 0-.944.087-1.346.261-.403.174-.72.415-.954.722-.234.307-.351.637-.351.99h1.444c0-.254.105-.463.315-.628.21-.164.48-.246.809-.246.38 0 .663.1.85.3.186.2.279.466.279.8v.421h-.886c-.947 0-1.675.183-2.184.55-.51.366-.764.892-.764 1.577 0 .543.204.998.612 1.367.409.368.936.552 1.581.552zm.268-1.158c-.31 0-.556-.082-.74-.247-.184-.164-.276-.385-.276-.662 0-.341.134-.604.404-.79.27-.187.671-.28 1.206-.28h.779v1.212a1.39 1.39 0 0 1-.568.559c-.251.138-.52.208-.805.208zm5.77 1.04V18.04c.23-.507.676-.761 1.338-.761.202 0 .398.016.588.048l.006-1.355a1.352 1.352 0 0 0-.51-.083c-.619 0-1.102.279-1.45.837l-.037-.719h-1.378v6.43h1.444zm4.868.118c.306 0 .623-.045.951-.136v-1.117c-.17.04-.338.06-.505.06-.25 0-.423-.055-.52-.164-.097-.11-.145-.286-.145-.532v-3.589h1.135v-1.07h-1.135v-1.562h-1.445v1.562h-1.058v1.07h1.058v3.642c0 1.224.555 1.836 1.664 1.836zm4.85 0c.535 0 1.018-.106 1.447-.317a2.6 2.6 0 0 0 1.032-.895l-.779-.742c-.416.534-.955.802-1.617.802-.471 0-.862-.155-1.173-.464-.311-.309-.489-.729-.532-1.26h4.202v-.582c0-1.022-.239-1.812-.716-2.37-.478-.56-1.154-.838-2.03-.838-.55 0-1.05.14-1.498.422a2.827 2.827 0 0 0-1.043 1.179c-.248.505-.371 1.078-.371 1.72v.178c0 .96.284 1.727.852 2.303.57.576 1.311.864 2.226.864zm1.153-3.933H84.24c.067-.495.222-.881.466-1.159.244-.277.564-.416.96-.416.4 0 .713.124.939.372.226.247.355.613.386 1.096v.107zm6.122 6.411c.939 0 1.605-.54 1.997-1.622l2.556-7.404h-1.54l-1.307 4.362-1.361-4.362H91.9l2.258 6.4-.208.553c-.107.312-.253.535-.437.668s-.458.199-.823.199l-.273-.018v1.117c.253.072.485.107.695.107zm10.668-2.478c.721 0 1.298-.261 1.73-.784l.071.666h1.308V13.31h-1.445v3.292c-.42-.476-.97-.713-1.652-.713-.772 0-1.389.3-1.848.9-.46.6-.69 1.395-.69 2.386 0 1.041.233 1.865.699 2.471.465.606 1.075.91 1.827.91zm.369-1.176c-.464 0-.821-.183-1.073-.55-.252-.366-.377-.876-.377-1.53 0-.744.126-1.302.38-1.672.254-.37.614-.556 1.082-.556.59 0 1.018.258 1.283.773v2.745c-.273.527-.705.79-1.295.79zm7.078 1.176c.535 0 1.018-.106 1.448-.317a2.6 2.6 0 0 0 1.03-.895l-.778-.742c-.416.534-.955.802-1.616.802-.472 0-.863-.155-1.174-.464-.311-.309-.489-.729-.532-1.26h4.202v-.582c0-1.022-.239-1.812-.716-2.37-.478-.56-1.154-.838-2.03-.838-.55 0-1.05.14-1.498.422a2.827 2.827 0 0 0-1.043 1.179c-.247.505-.371 1.078-.371 1.72v.178c0 .96.284 1.727.853 2.303.568.576 1.31.864 2.225.864zm1.153-3.933h-2.751c.067-.495.222-.881.466-1.159.244-.277.564-.416.96-.416.4 0 .713.124.94.372.225.247.354.613.385 1.096v.107zm4.97 3.933c.776 0 1.404-.179 1.883-.537.48-.359.72-.827.72-1.406 0-.344-.079-.637-.235-.879-.157-.242-.397-.449-.72-.62-.323-.173-.767-.322-1.334-.447-.567-.124-.943-.248-1.13-.37a.585.585 0 0 1-.279-.518c0-.245.1-.442.3-.588.2-.147.46-.22.776-.22.341 0 .614.092.82.276a.89.89 0 0 1 .31.693h1.444c0-.606-.237-1.1-.71-1.48-.474-.38-1.095-.57-1.864-.57-.72 0-1.315.186-1.783.558-.467.373-.701.836-.701 1.39 0 .662.36 1.167 1.082 1.516.328.158.739.289 1.23.392.491.103.843.222 1.055.356.212.135.318.331.318.589 0 .233-.1.423-.297.567-.198.145-.488.217-.868.217-.392 0-.707-.092-.945-.276-.238-.184-.367-.447-.386-.788h-1.403c0 .385.115.743.345 1.076.23.333.55.594.962.784.413.19.882.285 1.41.285zm6.519 0c.464 0 .895-.1 1.296-.303.4-.202.717-.476.95-.823a2.12 2.12 0 0 0 .375-1.12h-1.361a1.076 1.076 0 0 1-.38.779c-.238.21-.537.315-.898.315-.475 0-.839-.172-1.09-.514-.252-.343-.378-.863-.378-1.56v-.232c.004-.689.133-1.203.386-1.542.254-.338.615-.508 1.082-.508.365 0 .665.12.9.357.236.238.362.54.378.909h1.361c-.024-.725-.276-1.31-.758-1.756-.481-.446-1.104-.668-1.869-.668-.903 0-1.617.294-2.14.882-.523.588-.784 1.372-.784 2.35v.149c0 1.026.263 1.83.79 2.412.527.582 1.24.873 2.14.873zm5.7 0c.665 0 1.228-.24 1.688-.719.047.278.103.478.166.6h1.474v-.1c-.162-.345-.244-.807-.244-1.385v-2.9c-.012-.685-.241-1.217-.69-1.595-.447-.378-1.047-.567-1.8-.567-.495 0-.944.087-1.346.261-.402.174-.72.415-.954.722-.234.307-.35.637-.35.99h1.443c0-.254.105-.463.315-.628.21-.164.48-.246.809-.246.38 0 .663.1.85.3.186.2.279.466.279.8v.421h-.886c-.947 0-1.675.183-2.184.55-.509.366-.763.892-.763 1.577 0 .543.204.998.612 1.367.408.368.935.552 1.58.552zm.267-1.158c-.309 0-.556-.082-.74-.247-.184-.164-.276-.385-.276-.662 0-.341.135-.604.404-.79.27-.187.672-.28 1.206-.28h.779v1.212a1.39 1.39 0 0 1-.568.559c-.251.138-.52.208-.805.208zm5.771 1.04V18.04c.23-.507.676-.761 1.337-.761.202 0 .399.016.589.048l.006-1.355a1.352 1.352 0 0 0-.511-.083c-.619 0-1.102.279-1.45.837l-.036-.719h-1.38v6.43h1.445zm5.343 2.53c.892 0 1.6-.243 2.125-.73.525-.487.787-1.153.787-1.996v-6.234h-1.301l-.065.648c-.42-.51-.997-.766-1.73-.766-.777 0-1.4.298-1.87.894-.469.596-.703 1.393-.703 2.392 0 1.057.238 1.885.716 2.483.477.598 1.092.897 1.845.897.694 0 1.248-.231 1.664-.695v.434c0 .503-.138.884-.416 1.144-.277.26-.656.389-1.135.389-.65 0-1.197-.263-1.64-.79l-.684.867c.234.317.576.574 1.025.77.45.196.91.294 1.382.294zm.173-3.588c-.468 0-.833-.185-1.097-.556-.263-.37-.395-.878-.395-1.524 0-.733.132-1.287.395-1.663.264-.377.633-.565 1.108-.565.583 0 1.01.244 1.284.73v2.83c-.281.498-.713.748-1.295.748zm6.21 1.176c.666 0 1.229-.24 1.688-.719.048.278.103.478.167.6h1.474v-.1c-.163-.345-.244-.807-.244-1.385v-2.9c-.012-.685-.242-1.217-.69-1.595-.447-.378-1.047-.567-1.8-.567-.496 0-.944.087-1.346.261-.403.174-.72.415-.954.722-.234.307-.351.637-.351.99h1.444c0-.254.105-.463.315-.628.21-.164.48-.246.809-.246.38 0 .663.1.85.3.186.2.279.466.279.8v.421h-.886c-.947 0-1.675.183-2.184.55-.51.366-.764.892-.764 1.577 0 .543.204.998.612 1.367.409.368.936.552 1.581.552zm.268-1.158c-.31 0-.556-.082-.74-.247-.184-.164-.276-.385-.276-.662 0-.341.134-.604.404-.79.27-.187.671-.28 1.206-.28h.779v1.212a1.39 1.39 0 0 1-.568.559c-.251.138-.52.208-.805.208zm9.39 1.158c.306 0 .622-.045.951-.136v-1.117c-.17.04-.338.06-.505.06-.25 0-.423-.055-.52-.164-.097-.11-.145-.286-.145-.532v-3.589h1.135v-1.07h-1.135v-1.562h-1.445v1.562h-1.058v1.07h1.058v3.642c0 1.224.555 1.836 1.664 1.836zm4.107 0c.78 0 1.383-.25 1.807-.748l.036.63h1.36v-6.43h-1.443v4.617c-.246.503-.72.755-1.42.755-.678 0-1.017-.408-1.017-1.224v-4.148h-1.444v4.166c0 .772.179 1.362.537 1.77.359.408.887.612 1.584.612zm13.753 1.379.975-.88-1.486-1.158c.468-.353.831-.829 1.09-1.43.26-.6.39-1.31.39-2.13v-.48c-.004-.844-.154-1.584-.452-2.22-.297-.636-.718-1.123-1.263-1.462-.544-.338-1.173-.508-1.887-.508-.701 0-1.324.172-1.869.514-.545.343-.967.837-1.266 1.483-.299.646-.448 1.39-.448 2.234v.487c.003.828.155 1.559.454 2.193.3.634.723 1.122 1.272 1.464.549.343 1.172.514 1.87.514.277 0 .536-.025.778-.077l1.842 1.456zm-2.62-2.614c-.662 0-1.177-.264-1.543-.79-.367-.528-.55-1.258-.55-2.193v-.505c.008-.927.195-1.645.562-2.154.366-.51.873-.764 1.518-.764.666 0 1.181.252 1.546.755.364.503.546 1.242.546 2.216v.452c0 .974-.179 1.715-.537 2.222-.359.507-.873.76-1.543.76zm6.62 1.117v-3.334h1.676l1.736 3.334h1.61v-.078l-1.943-3.606c.5-.21.888-.51 1.168-.9.28-.39.419-.875.419-1.453 0-.848-.272-1.496-.815-1.943-.542-.448-1.313-.672-2.311-.672h-3.044v8.652h1.504zm1.545-4.54h-1.545v-2.9h1.587c.523.008.916.139 1.18.393.263.253.395.612.395 1.075 0 .444-.143.793-.428 1.049-.285.255-.681.383-1.189.383z" fill="#FFF" fill-rule="nonzero"/>
                </g>
            </g>
        </g>
    </g>
</svg>
